<svg width="154" height="59" viewBox="0 0 154 59" fill="none" xmlns="http://www.w3.org/2000/svg">
<g clip-path="url(#clip0_1_2)">
<mask id="mask0_1_2" style="mask-type:luminance" maskUnits="userSpaceOnUse" x="0" y="0" width="154" height="59">
<path d="M154 0H0V59H154V0Z" fill="white"/>
</mask>
<g mask="url(#mask0_1_2)">
<path d="M65.725 14.1324C65.3125 14.1324 64.9 13.9952 64.625 13.858C64.35 13.7208 64.075 13.4464 63.9375 13.0348C63.8 12.6231 63.6625 12.0743 63.8 11.6627C63.8 11.251 63.8 10.9766 63.9375 10.565C63.9375 10.1534 64.075 9.87896 64.2125 9.46733L65.725 9.74175C65.5875 10.0162 65.5875 10.2906 65.45 10.565C65.45 10.8394 65.45 11.1138 65.45 11.251C65.45 11.5255 65.45 11.6627 65.45 11.9371C65.45 12.0743 65.45 12.3487 65.5875 12.4859H71.0875V8.78128H72.7375V14.1324H65.725ZM67.2375 8.64407C67.1 8.64407 66.9625 8.64407 66.825 8.50686C66.6875 8.36965 66.55 8.23244 66.4125 8.09524C66.275 7.95803 66.275 7.82082 66.275 7.68361C66.275 7.5464 66.275 7.40919 66.4125 7.27198C66.55 7.13477 66.6875 6.99756 66.825 6.86035C66.9625 6.99756 67.1 6.86035 67.2375 6.86035C67.375 6.86035 67.5125 6.86035 67.65 6.99756C67.7875 7.13477 67.925 7.27198 68.0625 7.40919C68.2 7.5464 68.2 7.68361 68.2 7.82082C68.2 7.95803 68.0625 8.09524 68.0625 8.23244C67.925 8.36965 67.7875 8.50686 67.65 8.64407C67.5125 8.50686 67.375 8.64407 67.2375 8.64407ZM69.3 8.64407C69.1625 8.64407 69.025 8.64407 68.8875 8.50686C68.75 8.36965 68.75 8.23244 68.6125 8.09524C68.475 7.95803 68.475 7.82082 68.475 7.68361C68.475 7.5464 68.475 7.40919 68.6125 7.27198C68.75 7.27198 68.75 7.13477 68.8875 6.99756C69.025 6.86035 69.4375 6.86035 69.575 6.99756C69.7125 7.13477 69.85 7.27198 69.9875 7.40919C70.125 7.5464 70.125 7.5464 70.2625 7.68361C70.2625 7.82082 70.2625 7.95803 70.125 8.09524C69.9875 8.23244 69.85 8.36965 69.7125 8.50686C69.575 8.50686 69.4375 8.64407 69.3 8.64407Z" fill="#005762"/>
<path d="M74.3875 14.1329V6.99805H76.0375V14.1329H74.3875Z" fill="#005762"/>
<path d="M77.6875 17.2882L77.1375 15.9161C77.4125 15.7789 77.55 15.6417 77.825 15.5045C77.9625 15.3673 78.1 15.0929 78.1 14.9557C78.2375 14.6812 78.2375 14.2696 78.2375 13.9952V8.78125H79.75V13.858C79.75 14.4068 79.75 14.9557 79.475 15.3673C79.3375 15.7789 79.0625 16.1906 78.7875 16.465C78.5125 16.8766 78.1 17.0138 77.6875 17.2882Z" fill="#005762"/>
<path d="M81.4 14.1329V6.99805H83.05V12.3492H83.875V14.1329H81.4ZM83.875 14.1329V12.3492C84.0125 12.3492 84.0125 12.4864 84.0125 12.6236C84.15 13.0353 84.15 13.4469 84.0125 13.9957C84.0125 13.9957 84.0125 14.1329 83.875 14.1329Z" fill="#005762"/>
<path d="M83.875 14.1324C83.7375 14.1324 83.7375 13.9951 83.7375 13.8579C83.7375 13.5835 83.7375 13.4463 83.7375 13.1719C83.7375 12.8975 83.7375 12.7603 83.7375 12.4858C83.7375 12.3486 83.875 12.3486 83.875 12.3486V14.1324ZM83.875 14.1324V12.3486H86.625V14.1324H83.875ZM86.625 14.1324V12.3486C86.7625 12.3486 86.7625 12.4858 86.7625 12.6231C86.7625 12.8975 86.7625 13.0347 86.7625 13.3091C86.7625 13.5835 86.7625 13.7207 86.7625 13.9951C86.7625 13.9951 86.7625 14.1324 86.625 14.1324Z" fill="#005762"/>
<path d="M86.625 14.1329C86.4875 14.1329 86.4875 13.9957 86.4875 13.8585C86.35 13.4469 86.35 13.0352 86.4875 12.4864C86.4875 12.3492 86.625 12.3492 86.625 12.3492V14.1329ZM86.625 14.1329V12.3492H91.9875V10.4282C91.85 10.4282 91.7125 10.4282 91.575 10.4282C91.4375 10.4282 91.3 10.4282 91.025 10.4282C90.6125 10.4282 90.3375 10.4282 89.925 10.5655C89.5125 10.5655 89.2375 10.7027 88.825 10.8399L88.1375 9.33057C88.4125 9.19336 88.825 9.05615 89.1 9.05615C89.375 8.91895 89.7875 8.91895 90.0625 8.91895C90.3375 8.91895 90.75 8.91895 91.025 8.91895C91.4375 8.91895 91.9875 8.91895 92.4 9.05615C92.675 9.19336 92.95 9.33057 93.0875 9.60499C93.225 9.87941 93.3625 10.291 93.3625 10.7027V14.2701L86.625 14.1329ZM88.55 13.5841C88.275 13.3096 88.1375 13.0352 88.1375 12.6236C88 12.212 88 11.8003 88 11.3887C88 10.9771 88 10.7027 88.1375 10.291C88.275 9.87941 88.275 9.60499 88.4125 9.19336L90.0625 9.60499C89.925 10.0166 89.7875 10.291 89.7875 10.5655C89.65 10.8399 89.65 11.1143 89.65 11.3887C89.65 11.6631 89.65 11.9376 89.65 12.0748C89.65 12.212 89.65 12.4864 89.7875 12.6236C89.7875 12.7608 89.925 12.898 90.0625 13.0352L88.55 13.5841Z" fill="#005762"/>
<path d="M94.8749 18.2492V17.5632L95.2874 17.426C95.2874 17.2887 95.2874 17.2887 95.2874 17.1515C95.2874 17.0143 95.2874 16.8771 95.2874 16.8771C95.2874 16.6027 95.2874 16.1911 95.5624 15.9167C95.6999 15.6422 95.9749 15.505 96.2499 15.3678C96.5249 15.2306 96.9374 15.2306 97.3499 15.0934V15.9167C97.2124 15.9167 96.9374 15.9167 96.7999 16.0539C96.6624 16.0539 96.5249 16.1911 96.2499 16.1911V16.7399C96.2499 16.8771 96.2499 16.8771 96.3874 17.0143C96.5249 17.0143 96.6624 17.0143 96.6624 17.0143L97.6249 16.7399V17.426L94.8749 18.2492ZM98.0374 14.2701C97.4874 14.2701 96.7999 14.2701 96.2499 13.9957C95.8374 13.8585 95.5624 13.7213 95.2874 13.3097C95.1499 12.898 95.0124 12.4864 95.0124 12.0748C95.0124 11.8004 95.0124 11.3887 95.1499 11.1143C95.2874 10.8399 95.4249 10.5655 95.5624 10.4283C95.8374 10.1539 96.1124 10.0167 96.5249 9.87944L99.1374 8.91898V6.99805H100.787V8.91898C100.787 9.33061 100.787 9.46781 100.787 9.74223C100.787 9.87944 100.787 10.0167 100.65 10.1539C100.512 10.2911 100.512 10.2911 100.375 10.4283V10.5655C100.787 10.9771 101.062 11.6632 101.062 12.3492C101.062 12.898 100.787 13.5841 100.375 13.8585C99.9624 14.1329 99.1374 14.2701 98.0374 14.2701ZM97.2124 10.1539L95.2874 8.50735L96.3874 7.13526L99.1374 9.46781L97.2124 10.1539ZM96.7999 12.4864H98.7249C98.8624 12.4864 98.9999 12.4864 99.2749 12.3492C99.4124 12.212 99.4124 12.212 99.4124 12.0748C99.4124 11.9376 99.4124 11.9376 99.2749 11.8004C99.2749 11.6632 99.1374 11.6632 98.9999 11.526L98.3124 10.9771L96.6624 11.526L96.7999 12.4864Z" fill="#005762"/>
<path d="M102.85 14.1329V6.99805H104.5V14.1329H102.85Z" fill="#005762"/>
<path d="M112.475 17.2882C111.787 17.2882 111.1 17.2882 110.412 17.151C110 17.151 109.587 17.0138 109.175 16.7393C108.9 16.6021 108.625 16.3277 108.487 15.9161C108.35 15.5045 108.212 15.0928 108.35 14.6812C108.35 14.4068 108.35 14.1324 108.35 13.8579C108.35 13.5835 108.487 13.3091 108.487 13.0347C108.625 12.8975 108.625 12.6231 108.762 12.3486L110.275 12.6231C110.137 12.8975 110.137 13.1719 110 13.5835C110 13.8579 109.862 14.1324 109.862 14.4068C109.862 14.6812 109.862 14.8184 109.862 15.0928C109.862 15.23 109.862 15.5045 110 15.6417H113.162C113.575 15.6417 113.85 15.6417 114.262 15.6417C114.4 15.6417 114.675 15.5045 114.812 15.5045C114.95 15.3672 114.95 15.23 114.95 15.0928V14.2696H116.6V14.8184C116.6 15.23 116.6 15.6417 116.462 16.0533C116.325 16.3277 116.05 16.7393 115.775 16.8765C115.362 17.151 114.95 17.2882 114.537 17.2882C113.85 17.2882 113.162 17.2882 112.475 17.2882ZM111.512 19.6207C111.375 19.6207 111.237 19.6207 111.1 19.4835C110.962 19.3463 110.825 19.2091 110.687 19.0719C110.55 18.9347 110.55 18.5231 110.687 18.3858C110.825 18.2486 110.962 18.1114 111.1 17.9742C111.237 17.837 111.65 17.837 111.787 17.9742C111.925 18.1114 112.062 18.2486 112.2 18.3858C112.337 18.5231 112.337 18.6603 112.337 18.7975C112.337 18.9347 112.337 19.0719 112.2 19.2091C112.062 19.3463 111.925 19.4835 111.787 19.6207C111.787 19.4835 111.65 19.6207 111.512 19.6207ZM114.95 14.1324C114.537 14.1324 114.125 14.1324 113.575 13.9951C113.162 13.9951 112.75 13.8579 112.337 13.7207L112.612 12.0742C113.025 12.2114 113.3 12.2114 113.712 12.3486C113.987 12.3486 114.262 12.3486 114.537 12.3486H117.562V14.1324H114.95ZM113.575 19.6207C113.437 19.6207 113.3 19.6207 113.162 19.4835C113.025 19.3463 112.887 19.2091 112.75 19.0719C112.612 18.9347 112.612 18.5231 112.75 18.3858C112.887 18.2486 113.025 18.1114 113.162 17.9742C113.3 17.837 113.437 17.837 113.575 17.837C113.712 17.837 113.85 17.837 113.987 17.9742C114.125 18.1114 114.262 18.2486 114.4 18.3858C114.537 18.5231 114.537 18.6603 114.537 18.7975C114.537 18.9347 114.537 19.0719 114.4 19.2091C114.262 19.3463 114.125 19.4835 113.987 19.6207C113.85 19.4835 113.712 19.6207 113.575 19.6207ZM117.562 14.1324V12.3486C117.7 12.3486 117.7 12.4858 117.7 12.6231C117.837 13.0347 117.837 13.4463 117.7 13.9951C117.7 13.9951 117.7 14.1324 117.562 14.1324Z" fill="#005762"/>
<path d="M117.562 14.133C117.425 14.133 117.425 13.9957 117.425 13.8585C117.425 13.5841 117.425 13.4469 117.425 13.1725C117.425 12.8981 117.425 12.7609 117.425 12.4864C117.425 12.3492 117.562 12.3492 117.562 12.3492V14.133ZM117.562 14.133V12.3492H118.937C118.937 12.0748 118.8 11.9376 118.8 11.6632C118.8 11.3888 118.8 11.1143 118.8 10.8399C118.8 10.5655 118.8 10.1539 118.937 9.87946C119.075 9.60505 119.212 9.33063 119.487 9.19342C119.762 9.05621 120.037 8.919 120.312 8.78179C120.725 8.64458 121.137 8.64458 121.55 8.64458C121.962 8.64458 122.512 8.64458 122.925 8.78179C123.337 8.919 123.75 8.919 124.162 9.05621V14.133H117.562ZM120.45 12.3492H122.1C122.237 12.3492 122.375 12.3492 122.512 12.212C122.65 12.0748 122.65 11.9376 122.65 11.8004V10.4283H121C120.862 10.4283 120.725 10.4283 120.587 10.5655C120.45 10.7027 120.45 10.8399 120.45 10.9771V12.3492ZM121.687 7.54691C121.55 7.54691 121.412 7.54691 121.275 7.4097C121.137 7.27249 121 7.13528 120.862 6.99807C120.725 6.86086 120.725 6.72365 120.725 6.58644C120.725 6.44923 120.725 6.31202 120.862 6.17481C121 6.0376 121.137 5.9004 121.275 5.76319C121.412 5.62598 121.55 5.62598 121.687 5.62598C121.825 5.62598 121.962 5.62598 122.1 5.76319C122.237 5.9004 122.375 6.0376 122.512 6.17481C122.65 6.31202 122.65 6.44923 122.65 6.58644C122.65 6.72365 122.65 6.86086 122.512 6.99807C122.375 7.13528 122.237 7.27249 122.1 7.4097C121.825 7.4097 121.825 7.54691 121.687 7.54691Z" fill="#005762"/>
<path d="M130.488 17.6997C130.075 17.6997 129.663 17.6997 129.388 17.5625C129.113 17.4253 128.838 17.2881 128.563 17.1509C128.288 17.0137 128.15 16.7393 128.15 16.4648C128.013 16.1904 128.013 15.7788 128.013 15.5044C128.013 15.23 128.013 14.8183 128.15 14.5439C128.288 14.2695 128.288 13.9951 128.563 13.8579C128.7 13.7207 128.838 13.4462 129.113 13.309C129.388 13.1718 129.525 13.0346 129.8 12.8974C129.388 12.4858 128.975 12.0742 128.7 11.6625C128.425 11.1137 128.288 10.7021 128.288 10.016C128.288 9.74159 128.425 9.46717 128.563 9.32996C128.838 9.05555 129.25 8.91834 129.663 8.91834C130.9 8.78113 132.138 8.78113 133.375 8.91834C133.788 8.91834 134.063 9.05555 134.338 9.32996C134.613 9.32996 134.75 9.60438 134.75 9.8788C134.75 10.1532 134.75 10.5648 134.613 10.8393C134.475 11.1137 134.475 11.3881 134.2 11.6625C134.063 11.9369 133.925 12.0742 133.65 12.3486H134.2C134.338 12.3486 134.613 12.3486 134.75 12.3486H135.438V14.1323H133.65C133.238 14.1323 132.825 14.1323 132.55 13.9951C132.138 13.9951 131.863 13.8579 131.45 13.7207C131.175 13.8579 130.763 13.9951 130.488 13.9951C130.213 14.1323 130.075 14.1323 129.8 14.2695C129.663 14.4067 129.525 14.5439 129.525 14.5439V15.6416C129.663 15.6416 129.938 15.6416 130.075 15.6416C130.35 15.6416 130.625 15.6416 130.763 15.6416C131.175 15.6416 131.45 15.6416 131.863 15.6416C132.275 15.6416 132.55 15.5044 132.963 15.3672L133.1 17.1509C132.688 17.2881 132.275 17.2881 131.863 17.4253C131.588 17.6997 131.038 17.6997 130.488 17.6997ZM131.45 12.2114C131.863 12.0742 132.413 11.9369 132.688 11.5253C132.963 11.2509 133.1 10.8393 133.1 10.4276H129.938C129.938 10.7021 129.938 10.9765 130.075 11.2509C130.213 11.5253 130.35 11.6625 130.625 11.7997C130.9 11.9369 131.175 12.0742 131.45 12.2114ZM135.438 14.1323V12.3486C135.575 12.3486 135.575 12.4858 135.575 12.623C135.575 12.8974 135.575 13.0346 135.575 13.309C135.575 13.5835 135.575 13.7207 135.575 13.9951C135.575 13.9951 135.575 14.1323 135.438 14.1323Z" fill="#005762"/>
<path d="M135.437 14.1324C135.3 14.1324 135.3 13.9951 135.3 13.8579C135.3 13.5835 135.3 13.4463 135.3 13.1719C135.3 12.8975 135.3 12.7603 135.3 12.4858C135.3 12.3486 135.437 12.3486 135.437 12.3486V14.1324ZM135.437 14.1324V12.3486H138.187V14.1324H135.437ZM138.187 14.1324V12.3486C138.325 12.3486 138.325 12.4858 138.325 12.6231C138.325 12.8975 138.325 13.0347 138.325 13.3091C138.325 13.5835 138.325 13.7207 138.325 13.9951C138.325 13.9951 138.325 14.1324 138.187 14.1324Z" fill="#005762"/>
<path d="M138.187 14.1328C138.05 14.1328 138.05 13.9956 138.05 13.8584C138.05 13.584 138.05 13.4468 138.05 13.1724C138.05 12.8979 138.05 12.7607 138.05 12.4863C138.05 12.3491 138.187 12.2119 138.187 12.2119V14.1328ZM138.187 14.1328V12.3491H140.525L139.7 13.1724V8.78167H141.35V14.1328H138.187ZM140.525 7.54678C140.387 7.54678 140.25 7.54678 140.112 7.40958C139.975 7.27237 139.837 7.13516 139.7 6.99795C139.562 6.86074 139.562 6.72353 139.562 6.58632C139.562 6.44911 139.562 6.3119 139.7 6.17469C139.837 6.03748 139.975 5.90027 140.112 5.76306C140.25 5.62585 140.662 5.62585 140.8 5.76306C140.937 5.90027 141.075 6.03748 141.212 6.17469C141.35 6.3119 141.35 6.44911 141.35 6.58632C141.35 6.72353 141.212 6.86074 141.212 6.99795C141.075 7.13516 140.937 7.27237 140.8 7.40958C140.8 7.40958 140.662 7.54678 140.525 7.54678ZM141.35 14.1328V12.3491H142.175V14.1328H141.35ZM142.175 14.1328V12.3491C142.312 12.3491 142.312 12.4863 142.312 12.6235C142.312 12.8979 142.312 13.0352 142.312 13.3096C142.312 13.584 142.312 13.7212 142.312 13.9956C142.312 13.9956 142.312 14.1328 142.175 14.1328Z" fill="#005762"/>
<path d="M142.175 14.1324C142.037 14.1324 142.037 13.9952 142.037 13.858C142.037 13.5836 142.037 13.4464 142.037 13.172C142.037 12.8975 142.037 12.7603 142.037 12.4859C142.037 12.3487 142.175 12.2115 142.175 12.2115V14.1324ZM142.175 14.1324V12.3487H150.837V14.1324H142.175ZM149.187 14.1324V10.565C148.775 10.4278 148.362 10.4278 147.812 10.4278C147.125 10.4278 146.437 10.565 145.887 10.9766C145.475 11.5254 145.2 12.0743 145.2 12.7603H143.687V8.64405H145.337V10.2906C145.475 9.87893 145.75 9.60451 146.025 9.33009C146.437 9.05567 146.712 8.91846 147.125 8.78125C147.537 8.64405 148.087 8.50684 148.5 8.50684C148.912 8.50684 149.462 8.50684 149.875 8.64405C150.15 8.78126 150.425 8.91846 150.562 9.19288C150.7 9.60451 150.837 10.0161 150.7 10.4278V13.858H149.187V14.1324Z" fill="#005762"/>
<path d="M152.487 14.1329V6.99805H154.137V14.1329H152.487Z" fill="#005762"/>
<path d="M63.8 39.1048L64.7625 22.9141H70.5375L73.0125 32.1071H73.15L75.625 22.9141H81.4L82.3625 39.1048H77.825L77.275 30.0489H77.1375L74.8 39.1048H71.225L68.8875 30.0489H68.75L68.2 39.1048H63.8Z" fill="#005762"/>
<path d="M83.7375 39.1048L88 22.9141H95.0125L99.275 39.1048H94.875L91.7125 27.3048H91.4375L88.275 39.1048H83.7375ZM86.625 36.2234V32.9303H96.525V36.2234H86.625Z" fill="#005762"/>
<path d="M101.2 39.1048V22.9141H105.737V39.1048H101.2ZM110.137 39.1048L108.075 34.8513C107.8 34.4396 107.662 34.028 107.525 33.6164C107.387 33.342 107.387 32.9303 107.25 32.5187H105.187V29.0885H107.25C107.25 28.6769 107.387 28.4024 107.387 27.9908C107.525 27.5792 107.662 27.1676 107.937 26.7559L109.862 22.9141H114.675L110.825 30.735L114.812 39.1048H110.137Z" fill="#005762"/>
<path d="M121.275 32.6559V35.2629H127.6V38.9675H116.737V22.9141H127.737L127.187 26.6187H121.412V29.2257H126.775V32.5187L121.275 32.6559Z" fill="#005762"/>
<path d="M135.712 22.9141H140.25V39.1048H135.712V22.9141Z" fill="#005762"/>
<path d="M150.287 26.6187V39.1048H145.75V26.6187H141.9V22.9141H154V26.6187H150.287Z" fill="#005762"/>
<path d="M63.8 44.5928H65.45V53.0998H63.8V44.5928Z" fill="#005762"/>
<path d="M67.2375 53.0998V44.5928H68.8875L71.9125 49.3951C72.05 49.5323 72.05 49.6695 72.1875 49.9439C72.1875 50.0811 72.325 50.2184 72.325 50.3556H72.4625V44.73H74.1125V53.237H72.4625L69.4375 48.4346C69.3 48.2974 69.3 48.1602 69.1625 47.8858C69.1625 47.7486 69.025 47.6114 69.025 47.4742H68.8875V53.0998H67.2375Z" fill="#005762"/>
<path d="M81.2625 45.9649V53.0998H79.6125V45.9649H77.4125V44.5928H83.4625V45.9649H81.2625Z" fill="#005762"/>
<path d="M85.9375 53.0998H84.2875V44.5928H85.9375V53.0998ZM89.2375 49.5323H85.525V48.2974H89.2375V49.5323ZM89.1 44.5928H90.75V53.0998H89.1V44.5928Z" fill="#005762"/>
<path d="M94.05 49.5323V51.7277H97.625V53.0998H92.2625V44.5928H97.4875L97.35 45.9649H93.9125V48.1602H97.075V49.3951L94.05 49.5323Z" fill="#005762"/>
<path d="M103.263 49.5323V51.7277H106.838V53.0998H101.475V44.5928H106.7L106.563 45.9649H103.125V48.1602H106.288V49.3951L103.263 49.5323Z" fill="#005762"/>
<path d="M107.937 53.0998L108.487 44.5928H110.687L112.337 50.4928H112.475L114.125 44.5928H116.325L116.875 53.0998H115.225L114.812 46.9253H114.675L112.887 53.0998H111.512L109.725 46.9253H110L109.587 53.0998H107.937Z" fill="#005762"/>
<path d="M118.525 44.5928H120.175V53.0998H118.525V44.5928Z" fill="#005762"/>
<path d="M123.475 50.2184V53.0998H121.825V44.5928H125.4C125.95 44.5928 126.5 44.73 126.913 44.8672C127.325 45.0044 127.6 45.416 127.738 45.8277C127.875 46.3765 128.013 46.9253 128.013 47.6114C128.013 48.5718 127.875 49.2579 127.463 49.6695C127.05 50.0811 126.5 50.3556 125.675 50.3556H123.475V50.2184ZM123.475 48.9835H125.263C125.538 48.9835 125.675 48.9835 125.95 48.8463C126.088 48.7091 126.088 48.5718 126.088 48.4346V46.6509C126.088 46.5137 126.088 46.3765 125.95 46.2393C125.675 46.1021 125.538 46.1021 125.263 46.1021H123.475V48.9835ZM126.5 49.3951L128.288 53.237H126.5L124.988 49.9439L126.5 49.3951Z" fill="#005762"/>
<path d="M128.425 53.0998L130.9 44.5928H133.375L135.85 53.0998H134.2L132.275 46.1021H132.137L130.212 53.0998H128.425ZM129.8 51.316V50.0811H134.612V51.316H129.8Z" fill="#005762"/>
<path d="M139.013 45.9649V53.0998H137.363V45.9649H135.163V44.5928H141.213V45.9649H139.013Z" fill="#005762"/>
<path d="M143.688 49.5323V51.7277H147.4V53.0998H142.038V44.5928H147.263L147.125 45.9649H143.688V48.1602H146.85V49.3951L143.688 49.5323Z" fill="#005762"/>
<path d="M148.225 51.5904C148.637 51.7277 149.05 51.7277 149.462 51.8649C149.875 51.8649 150.425 52.0021 150.837 52.0021C151.112 52.0021 151.25 52.0021 151.525 52.0021H152.35V49.9439L151.112 49.8067C150.562 49.8067 150.15 49.6695 149.6 49.5323C149.325 49.3951 148.912 49.2579 148.637 49.1207C148.362 48.9835 148.225 48.7091 148.225 48.4346C148.087 48.023 148.087 47.7486 148.087 47.337C148.087 46.7881 148.225 46.2393 148.362 45.6904C148.5 45.2788 148.912 45.0044 149.187 44.8672C149.737 44.73 150.287 44.5928 150.837 44.5928C151.8 44.5928 152.762 44.73 153.725 44.8672L153.45 46.2393C153.037 46.1021 152.625 46.1021 152.212 46.1021C151.8 46.1021 151.387 46.1021 150.975 46.1021C150.7 46.1021 150.425 46.1021 150.287 46.1021C150.15 46.1021 149.875 46.1021 149.737 46.1021V48.023L151.112 48.1602C151.662 48.1602 152.212 48.2974 152.762 48.5718C153.175 48.7091 153.45 48.9835 153.725 49.3951C153.862 49.8067 154 50.3556 154 50.9044C154 51.4532 153.862 52.0021 153.725 52.4137C153.45 52.8253 153.175 53.0997 152.762 53.237C152.212 53.3742 151.525 53.5114 150.837 53.5114C150.287 53.5114 149.875 53.5114 149.325 53.3742C148.775 53.3742 148.362 53.237 147.812 53.0998L148.225 51.5904Z" fill="#005762"/>
<path d="M53.075 16.6025V53.2374H16.225L21.725 58.5886H58.4375V22.0909L53.075 16.6025Z" fill="#005762"/>
<path d="M42.075 5.62558L36.7125 0.274414H-0.137512V36.9093L5.36249 42.2605V5.62558H42.075Z" fill="#005762"/>
<path d="M9.9 40.3395L13.0625 36.3605L11.9625 30.3232L8.9375 34.1651L9.9 40.3395Z" fill="#005762"/>
<path d="M17.325 45.2791L20.35 41.3L18.425 30.3232L15.4 34.3023L17.325 45.2791Z" fill="#005762"/>
<path d="M23.7875 45.4163L26.8125 41.4372L24.8875 30.3232C23.925 31.2837 21.8625 34.1651 21.8625 34.1651L23.7875 45.4163Z" fill="#005762"/>
<path d="M30.8 47.8865L33.825 43.9074L31.4875 30.4609L28.325 34.44L30.8 47.8865Z" fill="#005762"/>
<path d="M37.2625 47.8862L40.2875 44.0443L36.7125 23.1885L33.55 27.1675L37.2625 47.8862Z" fill="#005762"/>
<path d="M42.075 38.1444L45.1 34.3025L41.9375 16.0537L38.775 19.8956L42.075 38.1444Z" fill="#005762"/>
<path d="M46.475 26.0696L49.5 22.2277L47.575 11.251L44.4125 15.0928L46.475 26.0696Z" fill="#005762"/>
</g>
</g>
<defs>
<clipPath id="clip0_1_2">
<rect width="154" height="59" fill="white"/>
</clipPath>
</defs>
</svg>
